# xmcd CD database file
#
# Track frame offsets:
#	150
#	25875
#	48345
#	104655
#	132975
#	146366
#	160050
#	185733
#	224145
#	243631
#	281385
#
# Disc length: 4046 seconds
#
# Revision: 0
# Processed by: cddbd v1.5.1PL0 Copyright (c) Steve Scherf et al.
# Submitted via: CDex 1.50
#
DISCID=a90fcc0b
DTITLE=Bert van den Brink - Invites Clare Fischer 
DYEAR=2000
DGENRE=Jazz
TTITLE0=Hoaky Blues
TTITLE1=Improvisation
TTITLE2=Smoke Gets in Your Eyes-Memories of You
TTITLE3=Morning
TTITLE4=Donna Lee
TTITLE5=Homage À Francis Paudràs
TTITLE6=Woody 'N You
TTITLE7=Yesterdays
TTITLE8=Woods
TTITLE9=Lennie's Pennies-Pennies From Heaven
TTITLE10=Chop Sticks
EXTD=YEAR: 2000
EXTT0=
EXTT1=
EXTT2=
EXTT3=
EXTT4=
EXTT5=
EXTT6=
EXTT7=
EXTT8=
EXTT9=
EXTT10=
PLAYORDER=
